HIERARCHY
ROOT Hips
{
  OFFSET 0 0 0
  CHANNELS 6 Xposition Yposition Zposition Zrotation Yrotation Xrotation
  JOINT LeftThigh
  {
    OFFSET 8.409438 0 -5.917753
    CHANNELS 3 Zrotation Yrotation Xrotation
    JOINT LeftLeg
    {
      OFFSET 0 0 -42.358652
      CHANNELS 3 Zrotation Yrotation Xrotation
      JOINT LeftFoot
      {
        OFFSET 0 0 -39.357303
        CHANNELS 3 Zrotation Yrotation Xrotation
      }
    }
  }
  JOINT RightThigh
  {
    OFFSET -8.409438 0 -5.917753
    CHANNELS 3 Zrotation Yrotation Xrotation
    JOINT RightLeg
    {
      OFFSET 0 0 -42.358652
      CHANNELS 3 Zrotation Yrotation Xrotation
      JOINT RightFoot
      {
        OFFSET 0 0 -39.357303
        CHANNELS 3 Zrotation Yrotation Xrotation
      }
    }
  }
  JOINT SpineLow
  {
    OFFSET 0 0 4.719101
    CHANNELS 3 Zrotation Yrotation Xrotation
    JOINT SpineMid
    {
      OFFSET 0 0 12.899191
      CHANNELS 3 Zrotation Yrotation Xrotation
      JOINT Chest
      {
        OFFSET 0 0 12.899191
        CHANNELS 3 Zrotation Yrotation Xrotation
        JOINT LeftShoulder
        {
          OFFSET 7.550562 1.41573 9.438202
          CHANNELS 3 Zrotation Yrotation Xrotation
          JOINT LeftArm
          {
            OFFSET 9.155056 0 4.247191
            CHANNELS 3 Zrotation Yrotation Xrotation
            JOINT LeftForearm
            {
              OFFSET 0 0 25.771955
              CHANNELS 3 Zrotation Yrotation Xrotation
              JOINT LeftHand
              {
                OFFSET 0 0 25.197169
                CHANNELS 3 Zrotation Yrotation Xrotation
              }
            }
          }
        }
        JOINT RightShoulder
        {
          OFFSET -7.550562 1.41573 9.438202
          CHANNELS 3 Zrotation Yrotation Xrotation
          JOINT RightArm
          {
            OFFSET -9.155056 0 4.247191
            CHANNELS 3 Zrotation Yrotation Xrotation
            JOINT RightForearm
            {
              OFFSET 0 0 -25.771955
              CHANNELS 3 Zrotation Yrotation Xrotation
              JOINT RightHand
              {
                OFFSET 0 0 -25.197169
                CHANNELS 3 Zrotation Yrotation Xrotation
              }
            }
          }
        }
        JOINT Neck
        {
          OFFSET 0 0 15.101124
          CHANNELS 3 Zrotation Yrotation Xrotation
          JOINT Head
          {
            OFFSET 0 0 11.325843
            CHANNELS 3 Zrotation Yrotation Xrotation
            End Site
            {
              OFFSET 0 0 14.157303
            }
          }
        }
      }
    }
  }
}
MOTION
Frames: 13
Frame Time: 0.0
0.0  101.685394  0.0  13.504762  57.147448  -83.464767  -9.818388  -9.350354  -10.715869  -18.778785  17.0514  24.053539  0.678751  2.342454  1.268112  -38.270081  23.038691  -7.847799  -11.090836  13.748517  25.024828  -0.022976  4.046136  -4.91787  -0.258654  1.314388  1.917058  -0.602817  3.61062  5.230744  -0.602817  3.61062  5.230743  35.994091  14.501685  21.396049  164.94357  13.017574  174.616782  -0.240067  8.46275  136.030485  75.315162  -7.589013  -21.136081  30.644007  2.55562  12.37892  139.34923  37.170801  104.463834  -68.431892  50.971954  -84.257489  83.461532  27.978222  6.308018  -15.648934  -1.720512  -3.512696  -11.746161  -1.201393  -2.680491  
0.0  101.685394  0.0  12.648012  56.686646  -83.984155  -9.276119  -9.630697  -10.700137  -19.141621  16.688116  23.789089  0.937497  2.406667  1.416904  -37.159664  22.412256  -7.78215  -11.962648  14.251877  25.178641  0.502866  3.979823  -4.875056  -0.117212  1.283849  1.836143  -0.222858  3.515841  5.017035  -0.222858  3.515841  5.017035  36.23416  14.770631  20.955723  164.619755  14.160241  175.26201  -0.230824  7.926716  135.45623  75.226183  -7.044982  -20.926438  30.497254  2.252888  12.97744  138.771098  36.196808  103.87719  -68.283503  50.309996  -84.311721  83.552826  27.924637  6.593984  -15.495415  -1.682061  -3.193782  -11.629886  -1.181484  -2.439699  
0.0  101.685394  0.0  11.944243  56.072653  -84.630985  -8.465256  -9.929043  -10.422452  -18.472958  16.101444  24.217884  0.489441  2.404623  1.280404  -36.028146  22.048464  -7.5391  -12.91912  14.697339  25.188486  1.136303  3.918271  -4.816481  0.071163  1.300508  1.835668  0.293398  3.547043  5.025889  0.293398  3.547043  5.02589  35.796825  14.937581  20.366633  164.536129  15.193428  175.952868  -0.224309  7.322253  134.921623  74.945217  -6.580679  -20.583166  29.935352  2.015522  13.325485  138.229689  35.008565  103.376675  -68.10535  49.816266  -83.798813  83.824122  27.955777  6.716715  -15.494971  -1.850334  -3.042234  -11.629763  -1.311636  -2.330197  
0.0  101.685394  0.0  11.300717  55.502515  -85.256112  -7.751628  -10.311523  -10.124441  -18.504015  15.944124  23.962828  0.515636  2.433343  1.399774  -35.287885  21.735286  -7.301841  -13.649139  14.98909  25.062911  1.696804  3.929418  -4.726363  0.220894  1.32794  1.888671  0.707764  3.609944  5.179336  0.707764  3.609945  5.179336  35.065652  15.177629  19.690104  164.662034  16.034133  176.73151  -0.23065  6.537631  134.419829  74.589338  -6.191279  -20.182143  29.254193  1.975354  13.361503  137.785605  33.706115  103.023571  -67.947452  49.608585  -82.760148  84.099137  28.023237  6.846902  -15.46313  -2.138253  -3.127798  -11.607298  -1.525739  -2.401541  
0.0  101.685394  0.0  10.761055  54.998413  -85.651213  -6.328557  -11.183851  -9.867819  -18.905053  16.169915  23.491436  0.629113  2.480893  1.543561  -34.994196  21.412359  -7.234973  -14.098849  15.109457  24.880078  2.237513  4.086297  -4.651668  0.086696  1.457208  1.926573  0.353344  3.973304  5.277179  0.353344  3.973304  5.277179  35.755406  15.140223  18.819388  164.856812  16.757958  177.528538  -0.321029  5.629942  133.958123  74.220272  -5.857727  -19.753288  30.057094  1.729224  12.999255  137.439558  32.541482  102.76213  -67.737177  49.620053  -81.386931  84.332514  28.103462  7.027328  -14.573778  -2.684671  -3.262368  -10.943029  -1.93707  -2.512102  
0.0  101.685394  0.0  10.480103  54.468048  -85.767947  -5.778263  -11.445918  -9.782203  -18.506525  15.987157  23.4229  0.449695  2.5416  1.524541  -35.304968  21.155282  -7.49529  -13.880242  15.074915  24.779745  2.435131  4.183429  -4.635358  0.03645  1.493016  1.971572  0.221601  4.07491  5.397655  0.221601  4.07491  5.397655  35.689832  15.642626  18.528792  165.016156  17.417252  178.367958  -0.443343  4.597827  133.556047  74.328087  -5.302441  -19.503624  29.973652  2.111295  12.894563  137.176176  31.725631  102.607484  -67.576094  49.554168  -80.066728  84.714139  28.141644  7.225658  -14.113018  -2.872293  -3.553539  -10.599668  -2.073549  -2.732719  
0.0  101.685394  0.0  10.425923  54.06812  -85.708121  -5.436591  -11.550725  -9.673042  -18.237439  15.782957  23.226885  0.450677  2.671433  1.574387  -36.183806  21.035732  -7.967595  -13.308534  14.965737  24.769636  2.397592  4.265909  -4.656655  -0.107997  1.543318  2.013842  -0.166577  4.224131  5.504634  -0.166577  4.224131  5.504634  35.950137  16.188246  18.469678  165.115436  18.020339  179.260977  -0.553577  3.227096  133.109579  74.59517  -4.605595  -19.439692  30.296959  2.496599  12.756637  136.821846  31.32541  102.543086  -67.469196  49.349468  -78.96224  85.24454  28.09843  7.476348  -13.582446  -2.990428  -3.81342  -10.203651  -2.159434  -2.927659  
0.0  101.685394  0.0  10.166454  53.34824  -85.985645  -4.882908  -11.754771  -9.351782  -17.948242  15.692059  23.078283  0.571033  2.752115  1.589151  -37.061166  20.991544  -8.434441  -12.45536  14.706707  24.846075  2.675021  4.385061  -4.674774  -0.19935  1.593822  2.052141  -0.409663  4.369843  5.603653  -0.409663  4.369843  5.603653  35.998037  16.59471  18.557262  165.283758  18.536996  -179.867525  -0.679794  1.426253  132.59039  74.674324  -3.935147  -19.414176  30.355949  2.769615  12.598844  136.626022  31.327901  102.401515  -67.427729  49.115169  -78.111708  85.758027  28.060725  7.670906  -13.111968  -3.124354  -3.905632  -9.851982  -2.260819  -2.997238  
0.0  101.685394  0.0  9.846145  52.418565  -86.45636  -4.238497  -11.973618  -8.858052  -17.726176  15.650148  22.8618  0.69883  2.799963  1.577755  -38.060672  21.054596  -8.970744  -11.314726  14.31826  25.02765  2.825316  4.523567  -4.664075  -0.278942  1.641044  2.11103  -0.61932  4.506004  5.759475  -0.61932  4.506004  5.759475  36.074367  16.996091  18.520636  165.293376  18.966221  -179.218312  -0.782875  -0.492703  132.066089  74.710802  -3.296546  -19.317292  30.448798  2.989476  12.296882  136.487933  31.602721  102.201185  -67.537234  48.725035  -77.640311  86.224671  28.074894  7.613104  -12.763003  -3.214289  -3.977779  -9.591146  -2.328973  -3.05133  
0.0  101.685394  0.0  9.390307  51.12617  -87.152537  -3.252663  -12.216064  -8.167889  -17.311298  15.41606  22.751921  0.680402  2.925733  1.612339  -38.889194  21.129993  -9.488265  -10.025099  13.865625  25.245116  3.054623  4.65543  -4.621316  -0.346417  1.669086  2.15881  -0.798101  4.588947  5.885531  -0.798101  4.588947  5.885531  36.163536  17.455725  18.589135  165.424941  19.342534  -178.643351  -0.828335  -2.285938  131.588043  74.838443  -2.635129  -19.08101  30.578085  3.193518  12.0105  136.551127  32.065474  101.903655  -67.822301  48.155398  -77.542674  86.758122  28.044624  7.466896  -12.24111  -3.243129  -3.967326  -9.199897  -2.354127  -3.041177  
0.0  101.685394  0.0  8.846194  49.541875  -87.861521  -2.070496  -12.42615  -7.480982  -17.196506  15.148833  22.351008  0.699128  3.045306  1.738175  -39.535948  21.070856  -10.059806  -8.702878  13.507557  25.456324  3.266745  4.712625  -4.546226  -0.392676  1.692425  2.183451  -0.920814  4.657091  5.949624  -0.920814  4.657091  5.949624  36.373979  17.838046  18.618435  165.407496  19.656536  -178.195093  -0.825438  -3.948705  131.149651  75.081341  -1.939986  -18.784715  30.587582  3.390829  11.675025  136.792104  32.713216  101.427142  -68.08841  47.622994  -77.46413  87.262709  28.099209  7.386981  -11.822751  -3.202486  -3.909523  -8.885676  -2.327388  -2.994726  
0.0  101.685394  0.0  8.17608  47.606107  -88.69187  -0.603829  -12.725524  -6.659332  -16.860315  14.765494  22.122782  0.66919  3.171558  1.82611  -39.84621  20.851907  -10.598015  -7.495836  13.318826  25.652559  3.764721  4.785166  -4.447361  -0.405  1.69919  2.180851  -0.954105  4.676637  5.94159  -0.954105  4.676638  5.94159  36.394386  18.201691  18.89705  165.707487  19.980627  -177.509095  -0.784638  -5.55852  130.71657  75.455876  -1.205059  -18.559848  30.445381  3.593507  11.408304  137.159519  33.509715  100.680439  -68.437214  47.472377  -77.529686  87.490037  28.10995  7.361154  -11.242376  -3.14575  -3.738048  -8.449284  -2.291578  -2.861907  
0.0  101.685394  0.0  7.375339  45.313497  -89.708958  1.023927  -13.102382  -5.687401  -16.660605  14.356451  21.850151  0.688782  3.283918  1.837409  -39.655671  20.518096  -10.977713  -6.410545  13.222544  25.885161  4.422183  4.857928  -4.349356  -0.360179  1.700385  2.168981  -0.832253  4.675754  5.912274  -0.832253  4.675754  5.912274  36.212034  18.455538  19.239502  166.161869  20.315831  -176.706835  -0.737987  -7.192188  130.280103  75.978141  -0.396325  -18.465976  30.041872  3.655002  11.13544  137.533737  34.398576  99.620799  -69.034663  47.616609  -77.879464  87.567917  27.984417  7.41406  -10.752883  -3.055152  -3.457658  -8.080346  -2.231439  -2.647406  
